<?xml version="1.0" encoding="utf-8"?>
<!-- Generator: Adobe Illustrator 22.1.0, SVG Export Plug-In . SVG Version: 6.00 Build 0)  -->
<svg version="1.1" id="Calque_1" xmlns="http://www.w3.org/2000/svg" xmlns:xlink="http://www.w3.org/1999/xlink" x="0px" y="0px"
	 viewBox="0 0 1000 1000" style="enable-background:new 0 0 1000 1000;" xml:space="preserve">
<style type="text/css">
	.st0{fill:#000000;}
</style>
<g>
	<circle class="st0" cx="766.2" cy="837.9" r="91.4"/>
	<path class="st0" d="M683.1,450.8c-17.7,10.9-37.9,16.4-60.7,16.4c-41,0-72-11.2-93.2-33.5c-21.2-22.3-31.8-55.4-31.8-99.1
		c0-43.7,9.9-76.9,29.7-99.5c19.8-22.6,49-33.9,87.6-33.9c26.1,0,48.5,5.6,67.4,16.8c18.8,11.2,33.4,27.5,43.6,48.9l131.9-54.4
		c-20-45.6-51.3-80.6-93.9-105.1s-92.3-36.7-149-36.7c-89.8,0-157.9,22.3-204.2,67C364.1,182.4,341,248,341,334.5
		c0,54.5,9.2,100.6,27.5,138.4h-69V86.9V70.7H142.4v16.3v345v60.9v104.9v0.2h150.4L142.4,929.3h181.4c7.1-18.1,19.4-52.8,36.9-104.3
		c15.9-46,28.7-80.7,38.6-104.3l73.9,208.5h182.2L505.1,597.9h37.4v-0.2h56.8v-0.2c5.1,0.1,10.2,0.2,15.4,0.2
		c59.6,0,110.5-12.1,152.9-36.3c42.3-24.2,71.9-59.3,88.7-105.4l-129.9-53.8C715.2,423.7,700.7,439.8,683.1,450.8z"/>
</g>
</svg>
