<svg xmlns="http://www.w3.org/2000/svg" width="33.084" height="33.084" viewBox="0 0 33.084 33.084">
  <path id="Icon_awesome-facebook-square" data-name="Icon awesome-facebook-square" d="M29.539,2.25H3.545A3.545,3.545,0,0,0,0,5.795V31.789a3.545,3.545,0,0,0,3.545,3.545H13.68V24.086H9.028V18.792H13.68V14.757c0-4.59,2.732-7.125,6.917-7.125a28.185,28.185,0,0,1,4.1.357v4.5H22.389a2.647,2.647,0,0,0-2.985,2.86v3.438h5.079l-.812,5.294H19.4V35.334H29.539a3.545,3.545,0,0,0,3.545-3.545V5.795A3.545,3.545,0,0,0,29.539,2.25Z" transform="translate(0 -2.25)"/>
</svg>
