<svg xmlns="http://www.w3.org/2000/svg" width="33.08" height="33.08" viewBox="0 0 33.08 33.08">
  <path id="Icon_awesome-behance-square" data-name="Icon awesome-behance-square" d="M13.771,21.522c0,1.425-1.034,1.876-2.3,1.876H8.137V19.491h3.4C12.907,19.5,13.771,20.067,13.771,21.522ZM13.2,15.445c0-1.307-1.012-1.617-2.134-1.617H8.144v3.308H11.3c1.115,0,1.905-.487,1.905-1.691Zm9.769,1.713a2.2,2.2,0,0,0-2.341,2.193h4.593A2.1,2.1,0,0,0,22.971,17.158ZM33.08,5.794V31.786a3.545,3.545,0,0,1-3.544,3.544H3.544A3.545,3.545,0,0,1,0,31.786V5.794A3.545,3.545,0,0,1,3.544,2.25H29.536A3.545,3.545,0,0,1,33.08,5.794ZM20.062,13.547h5.745v-1.4H20.062Zm-3.175,8.144a3.671,3.671,0,0,0-2.584-3.81,2.756,2.756,0,0,0,1.935-2.732c0-2.821-2.1-3.507-4.534-3.507H5.021V25.819H11.9C14.472,25.8,16.887,24.572,16.887,21.692ZM28.059,20.6c0-3.035-1.78-5.567-4.992-5.567a5.154,5.154,0,0,0-5.25,5.435c0,3.2,2.016,5.39,5.25,5.39A4.578,4.578,0,0,0,27.874,22.4H25.386a2.336,2.336,0,0,1-2.23,1.336,2.317,2.317,0,0,1-2.518-2.607h7.4C28.044,20.961,28.059,20.776,28.059,20.6Z" transform="translate(0 -2.25)"/>
</svg>
