<svg xmlns="http://www.w3.org/2000/svg" width="33.08" height="33.08" viewBox="0 0 33.08 33.08">
  <path id="Icon_awesome-linkedin" data-name="Icon awesome-linkedin" d="M30.717,2.25H2.355A2.373,2.373,0,0,0,0,4.635v28.31A2.373,2.373,0,0,0,2.355,35.33H30.717a2.379,2.379,0,0,0,2.363-2.385V4.635A2.379,2.379,0,0,0,30.717,2.25ZM10,30.6h-4.9V14.817h4.91V30.6ZM7.546,12.661a2.843,2.843,0,1,1,2.843-2.843,2.844,2.844,0,0,1-2.843,2.843ZM28.376,30.6h-4.9V22.925c0-1.831-.037-4.187-2.547-4.187-2.555,0-2.946,1.994-2.946,4.054V30.6h-4.9V14.817h4.7v2.156h.066a5.164,5.164,0,0,1,4.644-2.547c4.962,0,5.885,3.271,5.885,7.524Z" transform="translate(0 -2.25)"/>
</svg>
